<svg width="71" height="70" viewBox="0 0 71 70" fill="none" xmlns="http://www.w3.org/2000/svg">
<g opacity="0.3" clip-path="url(#clip0_1_147)">
<g clip-path="url(#clip1_1_147)">
<path fill-rule="evenodd" clip-rule="evenodd" d="M63.364 14.9536C63.099 14.9263 62.8318 14.9263 62.5668 14.9536H56.0001L35.5001 35L15.0001 14.9536H8.12235C7.77341 14.959 7.42678 15.0113 7.0918 15.1091L33.7758 41.6823C34.5569 42.4602 35.8202 42.4594 36.6003 41.6804L63.364 14.9536Z" fill="#333333"/>
<path d="M66.2418 17.6567L37.9307 45.8512C37.2021 46.5755 36.2164 46.982 35.189 46.982C34.1617 46.982 33.176 46.5755 32.4474 45.8512L4.38904 17.8706C4.30278 18.1877 4.25705 18.5143 4.25293 18.8428V57.7317C4.25293 58.7631 4.66265 59.7523 5.39196 60.4816C6.12127 61.2109 7.11042 61.6206 8.14182 61.6206H62.5863C63.6177 61.6206 64.6068 61.2109 65.3361 60.4816C66.0654 59.7523 66.4752 58.7631 66.4752 57.7317V18.8428C66.4597 18.4377 66.381 18.0375 66.2418 17.6567V17.6567ZM10.8057 57.7317H8.10293V54.9512L22.239 40.9317L24.9807 43.6734L10.8057 57.7317ZM62.5474 57.7317H59.8252L45.6502 43.6734L48.3918 40.9317L62.5279 54.9512L62.5474 57.7317Z" fill="#333333"/>
</g>
<path d="M48.9525 4.21547C48.1753 3.43787 47.2524 2.82102 46.2367 2.40017C45.221 1.97931 44.1324 1.7627 43.0329 1.7627C41.9335 1.7627 40.8448 1.97931 39.8291 2.40017C38.8134 2.82102 37.8906 3.43787 37.1134 4.21547L35.5003 5.82852L33.8873 4.21547C32.3173 2.64551 30.188 1.76351 27.9677 1.76351C25.7475 1.76351 23.6181 2.64551 22.0482 4.21547C20.4782 5.78544 19.5962 7.91477 19.5962 10.135C19.5962 12.3553 20.4782 14.4846 22.0482 16.0546L23.6612 17.6676L35.5003 29.5068L47.3395 17.6676L48.9525 16.0546C49.7301 15.2774 50.3469 14.3545 50.7678 13.3388C51.1887 12.3231 51.4053 11.2345 51.4053 10.135C51.4053 9.0356 51.1887 7.94694 50.7678 6.93124C50.3469 5.91554 49.7301 4.99271 48.9525 4.21547V4.21547Z" fill="#333333"/>
</g>
<defs>
<clipPath id="clip0_1_147">
<rect width="70" height="70" fill="white" transform="translate(0.5)"/>
</clipPath>
<clipPath id="clip1_1_147">
<rect width="70" height="70" fill="white" transform="translate(0.5 3.28711)"/>
</clipPath>
</defs>
</svg>
