<svg width="71" height="70" viewBox="0 0 71 70" fill="none" xmlns="http://www.w3.org/2000/svg">
<g opacity="0.3">
<circle cx="35.4999" cy="34.9999" r="20.1064" fill="#333333"/>
<circle cx="35.4998" cy="34.9998" r="26.8333" stroke="#333333" stroke-width="7"/>
<path d="M38.8442 21.831C38.5169 21.933 38.2132 22.2639 37.9305 22.8285C37.7394 23.2091 37.6478 23.4802 37.5535 23.9503C37.3676 24.8458 37.2393 25.3309 37.0796 25.714C36.8859 26.1866 36.7367 26.4154 36.4068 26.7512C36.0639 27.0995 35.6371 27.5895 35.0271 28.3258C33.9459 29.6317 33.2312 30.3928 32.7835 30.7088C32.5348 30.8854 32.5138 30.8953 32.2677 30.9351C31.9143 30.9948 31.6761 31.1565 31.5137 31.4525L31.4404 31.5843V36.4224V41.2605L31.5111 41.3874C31.6682 41.6734 32.0112 41.8749 32.4091 41.9197C32.8934 41.9744 33.6448 42.1784 34.9355 42.6038C35.3308 42.7356 35.7078 42.8575 35.7732 42.8749C35.8387 42.8948 36.1136 42.9794 36.3885 43.0614C37.5352 43.4147 38.9986 43.6908 40.0799 43.7604C40.5956 43.7928 42.3837 43.7928 42.8681 43.7604C43.9441 43.6858 44.7321 43.3848 45.329 42.8152C45.9521 42.2257 46.2453 41.4769 46.2453 40.4844V40.0765L46.3946 39.9098C46.727 39.5392 46.9208 39.176 47.0569 38.6711C47.1983 38.1512 47.2114 37.6512 47.0936 37.2085L47.0517 37.0493L47.1616 36.895C47.3292 36.6587 47.5229 36.2558 47.5936 35.9871C47.7481 35.41 47.7271 34.8205 47.5308 34.1738L47.4784 34.0021L47.5936 33.8628C47.8737 33.5246 48.0675 33.144 48.2036 32.6664C48.2664 32.4475 48.2717 32.3928 48.2717 31.8953C48.2717 31.3829 48.2691 31.3505 48.201 31.1366C47.9025 30.2088 47.1067 29.4526 46.1668 29.2113C45.8003 29.1168 45.5856 29.1093 43.3864 29.1093C42.2083 29.1093 41.2449 29.1043 41.2449 29.0994C41.2449 29.0322 41.4465 28.6069 41.7397 28.0571C42.1193 27.3432 42.2502 27.0224 42.3811 26.4652C42.4885 26.0149 42.5094 25.7811 42.4937 25.1244C42.4701 24.0399 42.3419 23.5499 41.9151 22.9305C41.5434 22.3857 40.9569 22.045 40.0982 21.8684C39.7683 21.8012 39.0091 21.7788 38.8442 21.831Z" fill="white"/>
<path d="M24.8903 30.96C24.6311 31.0396 24.3981 31.2311 24.2751 31.4674L24.2148 31.5843V36.4349V41.2854L24.3039 41.4421C24.4138 41.6336 24.55 41.753 24.7751 41.855L24.9479 41.9321H27.3172C29.5739 41.9321 29.6917 41.9296 29.8174 41.8849C29.998 41.8202 30.1996 41.6734 30.2965 41.5341C30.4719 41.2829 30.4588 41.6809 30.4536 36.3851L30.4457 31.5843L30.3855 31.4674C30.2886 31.2809 30.1106 31.1117 29.9143 31.0197L29.7389 30.9376L27.3696 30.9326C25.4584 30.9276 24.9793 30.9351 24.8903 30.96ZM27.4245 38.3253C27.6916 38.4149 27.9586 38.6984 28.0241 38.9621C28.0686 39.1337 28.045 39.4173 27.9769 39.5641C27.901 39.7258 27.689 39.9322 27.5083 40.0193C27.3696 40.084 27.3329 40.0914 27.0947 40.0914C26.8617 40.0914 26.8172 40.084 26.6863 40.0243C26.5082 39.9397 26.2936 39.7432 26.2202 39.5964C26.1051 39.3601 26.1024 39.0218 26.2176 38.8004C26.2936 38.6487 26.4611 38.4746 26.6051 38.395C26.8355 38.2656 27.1654 38.2383 27.4245 38.3253Z" fill="white"/>
<path d="M27.4245 38.3253C27.6916 38.4149 27.9586 38.6984 28.0241 38.9621C28.0686 39.1337 28.045 39.4173 27.9769 39.5641C27.901 39.7258 27.689 39.9322 27.5083 40.0193C27.3696 40.084 27.3329 40.0914 27.0947 40.0914C26.8617 40.0914 26.8172 40.084 26.6863 40.0243C26.5082 39.9397 26.2936 39.7432 26.2202 39.5964C26.1051 39.3601 26.1024 39.0218 26.2176 38.8004C26.2936 38.6487 26.4611 38.4746 26.6051 38.395C26.8355 38.2656 27.1654 38.2383 27.4245 38.3253Z" fill="white"/>
</g>
</svg>
