<svg width="70" height="70" viewBox="0 0 70 70" fill="none" xmlns="http://www.w3.org/2000/svg">
<g opacity="0.3">
<rect x="4.2002" y="43.9658" width="11.4545" height="20.3072" rx="2" fill="#333333"/>
<rect x="18.2002" y="36.3506" width="11.4545" height="27.9224" rx="2" fill="#333333"/>
<rect x="32.2002" y="31.2734" width="11.4545" height="32.9992" rx="2" fill="#333333"/>
<rect x="46.2002" y="26.1968" width="11.4545" height="38.076" rx="2" fill="#333333"/>
<path d="M4.06761 35.8506C3.5202 35.9238 3.1358 36.4269 3.20902 36.9743C3.28225 37.5217 3.78538 37.9061 4.33278 37.8329L4.06761 35.8506ZM47.4729 17.8037L35.9633 18.7316L42.5217 28.2353L47.4729 17.8037ZM4.33278 37.8329C10.8037 36.9673 25.7783 32.9992 40.5963 23.7629L39.5384 22.0656C24.9766 31.1422 10.2754 35.0202 4.06761 35.8506L4.33278 37.8329Z" fill="#333333"/>
<ellipse cx="57.6547" cy="15.3291" rx="8.90909" ry="8.32914" fill="#333333"/>
<path d="M60.9958 16.7113C60.9958 17.3068 60.7805 17.8278 60.3498 18.2743C59.9263 18.7138 59.3192 19.0045 58.5285 19.1463V20.3265H57.0354V19.1994C56.5059 19.1711 55.9977 19.0895 55.5106 18.9549C55.0305 18.8202 54.6316 18.6536 54.314 18.4551L55.1187 16.6262C55.4717 16.8318 55.8671 16.9984 56.3047 17.126C56.7424 17.2465 57.1625 17.3068 57.5649 17.3068C57.9108 17.3068 58.1579 17.2749 58.3061 17.2111C58.4544 17.1402 58.5285 17.0374 58.5285 16.9027C58.5285 16.7468 58.4297 16.6298 58.232 16.5518C58.0414 16.4738 57.7237 16.3888 57.279 16.2966C56.7071 16.1761 56.2306 16.0485 55.8494 15.9138C55.4682 15.7721 55.1364 15.5452 54.854 15.2333C54.5716 14.9143 54.4304 14.4855 54.4304 13.9467C54.4304 13.3229 54.6528 12.7878 55.0976 12.3412C55.5494 11.8946 56.1953 11.611 57.0354 11.4905V10.3315H58.5285V11.4693C59.3756 11.5472 60.0922 11.7528 60.6781 12.086L59.9263 13.9042C59.1991 13.5356 58.5108 13.3513 57.8614 13.3513C57.219 13.3513 56.8977 13.5072 56.8977 13.8191C56.8977 13.968 56.993 14.0814 57.1837 14.1594C57.3743 14.2303 57.6884 14.3083 58.1261 14.3933C58.6909 14.4997 59.1674 14.6237 59.5556 14.7655C59.9439 14.9002 60.2792 15.1235 60.5616 15.4354C60.8511 15.7473 60.9958 16.1726 60.9958 16.7113Z" fill="white"/>
</g>
</svg>
