<svg width="71" height="70" viewBox="0 0 71 70" fill="none" xmlns="http://www.w3.org/2000/svg">
<g opacity="0.3" clip-path="url(#clip0_1_108)">
<path fill-rule="evenodd" clip-rule="evenodd" d="M30.1919 64.1668H40.8085C41.4732 64.1663 42.1178 63.9387 42.6355 63.5218C43.1532 63.1049 43.513 62.5236 43.6552 61.8743L44.8598 56.3939C46.4425 55.7012 47.9431 54.8345 49.3339 53.8097L40.8085 45.2843V24.7335L49.3339 16.2081C47.9396 15.1863 46.4384 14.3189 44.8569 13.621L43.6552 8.12891C43.5135 7.47907 43.154 6.89717 42.6363 6.47968C42.1185 6.06219 41.4736 5.8342 40.8085 5.8335H30.1919C29.5268 5.8342 28.8819 6.06219 28.3641 6.47968C27.8464 6.89717 27.4869 7.47907 27.3452 8.12891L26.1552 13.6181C25.3794 13.9535 24.621 14.3297 23.8831 14.7439C23.1189 15.1872 22.3781 15.6772 21.6664 16.2022L16.3085 14.496C15.6743 14.2938 14.99 14.3145 14.3693 14.5549C13.7485 14.7952 13.2287 15.2407 12.896 15.8172L7.58769 25.0135C7.25779 25.5909 7.13381 26.2633 7.23608 26.9204C7.33836 27.5775 7.66082 28.1803 8.15061 28.6302L12.3069 32.4131C12.1178 34.1307 12.1178 35.8638 12.3069 37.5814L8.15061 41.3731C7.66151 41.8227 7.33949 42.4251 7.23723 43.0815C7.13497 43.738 7.25853 44.4097 7.58769 44.9868L12.9077 54.1772C13.2403 54.7538 13.7602 55.1993 14.381 55.4396C15.0017 55.68 15.686 55.7007 16.3202 55.4985L21.6781 53.7922C23.07 54.8178 24.5716 55.6855 26.1552 56.3793L27.3423 61.8743C27.4846 62.5241 27.8448 63.1057 28.3631 63.5227C28.8814 63.9397 29.5267 64.1669 30.1919 64.1668Z" fill="#333333"/>
<path d="M35.4884 23.3335C32.3943 23.3335 29.4268 24.5627 27.2389 26.7506C25.0509 28.9385 23.8218 31.906 23.8218 35.0002C23.8218 38.0944 25.0509 41.0618 27.2389 43.2497C29.4268 45.4377 32.3943 46.6668 35.4884 46.6668C38.5826 46.6668 41.5501 45.4377 43.738 43.2497C45.9259 41.0618 47.1551 38.0944 47.1551 35.0002C47.1551 31.906 45.9259 28.9385 43.738 26.7506C41.5501 24.5627 38.5826 23.3335 35.4884 23.3335V23.3335Z" fill="white"/>
<circle cx="36.7961" cy="35.0002" r="3.88889" fill="#333333"/>
<circle cx="60.1296" cy="35.0002" r="3.88889" fill="#333333"/>
<circle cx="48.4626" cy="27.2224" r="3.88889" fill="#333333"/>
<circle cx="60.1296" cy="19.4446" r="3.88889" fill="#333333"/>
<path d="M37.4443 29.8148L39.0888 27.6222C39.2776 27.3704 39.574 27.2222 39.8888 27.2222H43.2777" stroke="#333333" stroke-width="2" stroke-linecap="round"/>
<path d="M49.1108 22.0369L50.7553 19.8443C50.9441 19.5925 51.2405 19.4443 51.5553 19.4443H54.9442" stroke="#333333" stroke-width="2" stroke-linecap="round"/>
<circle r="3.88889" transform="matrix(1 0 0 -1 48.4626 42.7776)" fill="#333333"/>
<circle r="3.88889" transform="matrix(1 0 0 -1 60.1296 50.5554)" fill="#333333"/>
<path d="M37.4443 40.1852L39.0888 42.3778C39.2776 42.6296 39.574 42.7778 39.8888 42.7778H43.2777" stroke="#333333" stroke-width="2" stroke-linecap="round"/>
<path d="M49.1108 47.9626L50.7553 50.1552C50.9441 50.407 51.2405 50.5552 51.5553 50.5552H54.9442" stroke="#333333" stroke-width="2" stroke-linecap="round"/>
<path d="M41.9814 35H54.9444" stroke="#333333" stroke-width="2" stroke-linecap="round"/>
</g>
<defs>
<clipPath id="clip0_1_108">
<rect width="70" height="70" fill="white" transform="translate(0.5)"/>
</clipPath>
</defs>
</svg>
