<svg width="71" height="70" viewBox="0 0 71 70" fill="none" xmlns="http://www.w3.org/2000/svg">
<g opacity="0.3">
<path d="M18.127 63.0305C17.5747 63.0305 17.127 62.5828 17.127 62.0305V60.7479C17.127 53.184 23.3177 47.0522 30.9543 47.0522H40.1725C47.8091 47.0522 53.9999 53.184 53.9999 60.7479V62.0305C53.9999 62.5828 53.5522 63.0305 52.9999 63.0305H18.127Z" fill="#333333" stroke="#333333" stroke-width="2" stroke-linecap="round"/>
<path d="M35.5634 40.2042C30.4724 40.2042 26.3452 36.1164 26.3452 31.0738C26.3452 26.0312 30.4724 21.9434 35.5634 21.9434C40.6544 21.9434 44.7817 26.0312 44.7817 31.0738C44.7817 36.1164 40.6544 40.2042 35.5634 40.2042Z" fill="#333333" stroke="#333333" stroke-width="2" stroke-linecap="round"/>
<path d="M59.3972 22.0111C59.5853 21.6578 60.0916 21.6578 60.2797 22.0111L61.9772 25.1978C62.0499 25.3342 62.1817 25.4294 62.3341 25.4555L65.9108 26.0685C66.3085 26.1366 66.4658 26.6235 66.1832 26.9115L63.6591 29.4838C63.5497 29.5953 63.4987 29.7514 63.5211 29.9059L64.0374 33.4612C64.095 33.8585 63.6846 34.1584 63.3236 33.9826L60.0574 32.3918C59.9192 32.3245 59.7577 32.3245 59.6195 32.3918L56.3533 33.9826C55.9923 34.1584 55.5819 33.8585 55.6395 33.4612L56.1558 29.9059C56.1782 29.7514 56.1272 29.5953 56.0178 29.4838L53.4937 26.9115C53.2111 26.6235 53.3684 26.1366 53.7661 26.0685L57.3428 25.4555C57.4952 25.4294 57.627 25.3342 57.6997 25.1978L59.3972 22.0111Z" fill="#333333"/>
<path d="M10.2331 22.0111C10.4213 21.6578 10.9275 21.6578 11.1157 22.0111L12.8132 25.1978C12.8859 25.3342 13.0176 25.4294 13.17 25.4555L16.7467 26.0685C17.1444 26.1366 17.3017 26.6235 17.0191 26.9115L14.495 29.4838C14.3857 29.5953 14.3346 29.7514 14.3571 29.9059L14.8733 33.4612C14.931 33.8585 14.5205 34.1584 14.1595 33.9826L10.8933 32.3918C10.7551 32.3245 10.5937 32.3245 10.4555 32.3918L7.18922 33.9826C6.82828 34.1584 6.4178 33.8585 6.47548 33.4612L6.99169 29.9059C7.01412 29.7514 6.96311 29.5953 6.85376 29.4838L4.32964 26.9115C4.04705 26.6235 4.20439 26.1366 4.60207 26.0685L8.17876 25.4555C8.33116 25.4294 8.4629 25.3342 8.5356 25.1978L10.2331 22.0111Z" fill="#333333"/>
<path d="M19.4514 8.31526C19.6395 7.96202 20.1458 7.96202 20.3339 8.31526L22.0314 11.502C22.1041 11.6384 22.2359 11.7336 22.3883 11.7597L25.965 12.3727C26.3626 12.4408 26.52 12.9277 26.2374 13.2157L23.7133 15.788C23.6039 15.8995 23.5529 16.0556 23.5753 16.2101L24.0915 19.7654C24.1492 20.1627 23.7388 20.4626 23.3778 20.2868L20.1116 18.696C19.9734 18.6287 19.8119 18.6287 19.6737 18.696L16.4075 20.2868C16.0465 20.4626 15.6361 20.1627 15.6937 19.7654L16.21 16.2101C16.2324 16.0556 16.1814 15.8995 16.072 15.788L13.5479 13.2157C13.2653 12.9277 13.4226 12.4408 13.8203 12.3727L17.397 11.7597C17.5494 11.7336 17.6812 11.6384 17.7539 11.502L19.4514 8.31526Z" fill="#333333"/>
<path d="M34.8151 2.22835C35.0033 1.87511 35.5095 1.87511 35.6977 2.22835L37.3952 5.41505C37.4679 5.55152 37.5996 5.64668 37.752 5.6728L41.3287 6.28576C41.7264 6.35392 41.8838 6.84078 41.6012 7.12877L39.077 9.70113C38.9677 9.81257 38.9167 9.96867 38.9391 10.1232L39.4553 13.6785C39.513 14.0758 39.1025 14.3757 38.7416 14.1999L35.4753 12.6091C35.3372 12.5418 35.1757 12.5418 35.0375 12.6091L31.7713 14.1999C31.4103 14.3757 30.9998 14.0758 31.0575 13.6785L31.5737 10.1232C31.5962 9.96867 31.5451 9.81257 31.4358 9.70113L28.9117 7.12877C28.6291 6.84078 28.7864 6.35391 29.1841 6.28576L32.7608 5.6728C32.9132 5.64668 33.0449 5.55152 33.1176 5.41505L34.8151 2.22835Z" fill="#333333"/>
<path d="M50.1789 8.31526C50.3671 7.96202 50.8733 7.96202 51.0615 8.31526L52.759 11.502C52.8317 11.6384 52.9634 11.7336 53.1158 11.7597L56.6925 12.3727C57.0902 12.4408 57.2475 12.9277 56.9649 13.2157L54.4408 15.788C54.3315 15.8995 54.2805 16.0556 54.3029 16.2101L54.8191 19.7654C54.8768 20.1627 54.4663 20.4626 54.1053 20.2868L50.8391 18.696C50.7009 18.6287 50.5395 18.6287 50.4013 18.696L47.135 20.2868C46.7741 20.4626 46.3636 20.1627 46.4213 19.7654L46.9375 16.2101C46.9599 16.0556 46.9089 15.8995 46.7996 15.788L44.2754 13.2157C43.9929 12.9277 44.1502 12.4408 44.5479 12.3727L48.1246 11.7597C48.277 11.7336 48.4087 11.6384 48.4814 11.502L50.1789 8.31526Z" fill="#333333"/>
</g>
</svg>
