<svg width="71" height="70" viewBox="0 0 71 70" fill="none" xmlns="http://www.w3.org/2000/svg">
<g opacity="0.3">
<path d="M60.931 33.4084C61.7319 39.2038 60.6924 45.1043 57.9593 50.277C55.2262 55.4498 50.9375 59.6335 45.6986 62.2377C40.4598 64.8418 34.5353 65.7349 28.7616 64.7907C22.9879 63.8466 17.6565 61.1129 13.5201 56.9756C9.38361 52.8384 6.651 47.5065 5.70797 41.7325C4.76494 35.9586 5.65913 30.0344 8.26431 24.796C10.8695 19.5577 15.0541 15.2698 20.2274 12.5377C25.4007 9.80565 31.3014 8.76733 37.0965 9.56933L35.3139 11.3519C34.6649 12.0001 34.15 12.7699 33.7986 13.6172C33.4472 14.4645 33.2663 15.3728 33.2661 16.2901C29.1237 16.2901 25.0744 17.5184 21.6301 19.8198C18.1859 22.1212 15.5014 25.3922 13.9162 29.2192C12.331 33.0463 11.9162 37.2575 12.7244 41.3202C13.5325 45.383 15.5272 49.1149 18.4563 52.044C21.3854 54.9731 25.1173 56.9678 29.1801 57.7759C33.2428 58.5841 37.454 58.1693 41.2811 56.5841C45.1081 54.9989 48.3791 52.3144 50.6805 48.8702C52.9819 45.4259 54.2102 41.3766 54.2102 37.2342C56.0612 37.2326 57.8357 36.496 59.1437 35.1864L60.931 33.4084Z" fill="#333333"/>
<path d="M51.4922 5.68662C51.7479 6.07008 51.8839 6.52082 51.8831 6.98168V18.6173H63.5187C63.9796 18.6165 64.4303 18.7525 64.8138 19.0082C65.1973 19.2638 65.4962 19.6276 65.6726 20.0533C65.8491 20.4791 65.8952 20.9476 65.8051 21.3996C65.7149 21.8516 65.4926 22.2666 65.1663 22.5921L55.8578 31.9006C55.6413 32.1165 55.3844 32.2877 55.1016 32.4043C54.8189 32.5209 54.516 32.5806 54.2102 32.5801H41.2109L37.7621 36.0289C37.9333 36.6687 37.966 37.3378 37.858 37.9913C37.75 38.6447 37.5037 39.2677 37.1357 39.8184C36.7676 40.3691 36.2863 40.8349 35.7238 41.1846C35.1613 41.5344 34.5307 41.7601 33.874 41.8466C33.2173 41.9331 32.5497 41.8785 31.9158 41.6863C31.2819 41.4941 30.6964 41.1689 30.1983 40.7323C29.7001 40.2957 29.301 39.7578 29.0274 39.1546C28.7538 38.5514 28.6121 37.8967 28.6118 37.2343C28.6129 36.5205 28.7778 35.8165 29.0938 35.1765C29.4098 34.5364 29.8686 33.9775 30.4346 33.5427C31.0007 33.1079 31.6591 32.8089 32.359 32.6686C33.0589 32.5283 33.7816 32.5506 34.4715 32.7337L37.9203 29.2895V16.2902C37.9198 15.9844 37.9795 15.6815 38.0961 15.3988C38.2127 15.1161 38.3839 14.8591 38.5998 14.6426L47.9084 5.33408C48.2338 5.00778 48.6489 4.78547 49.1008 4.69534C49.5528 4.6052 50.0213 4.65129 50.4471 4.82777C50.8728 5.00424 51.2366 5.30316 51.4922 5.68662Z" fill="#333333"/>
<path d="M33.266 20.9443C30.0441 20.9443 26.8947 21.8997 24.2158 23.6897C21.5369 25.4796 19.449 28.0238 18.2161 31.0004C16.9831 33.9769 16.6605 37.2523 17.2891 40.4122C17.9176 43.5722 19.4691 46.4747 21.7473 48.7529C24.0255 51.0311 26.928 52.5826 30.088 53.2111C33.2479 53.8397 36.5233 53.5171 39.4998 52.2841C42.4764 51.0512 45.0206 48.9633 46.8105 46.2844C48.6005 43.6056 49.5559 40.4561 49.5559 37.2342H43.1377L42.5559 37.816C42.444 39.604 41.8185 41.3218 40.7545 42.7632C39.6905 44.2045 38.2331 45.3082 36.5573 45.9417C34.8816 46.5753 33.0586 46.7118 31.3071 46.3348C29.5557 45.9579 27.9502 45.0836 26.6834 43.8168C25.4166 42.55 24.5423 40.9445 24.1654 39.1931C23.7884 37.4416 23.9249 35.6186 24.5585 33.9429C25.192 32.2671 26.2957 30.8098 27.7371 29.7457C29.1784 28.6817 30.8962 28.0562 32.6842 27.9443L33.266 27.3626V20.9443Z" fill="#333333"/>
</g>
</svg>
