<svg width="185" height="48" viewBox="0 0 185 48" fill="none" xmlns="http://www.w3.org/2000/svg">
<g opacity="0.3">
<path d="M62.7777 34.1766L59.7064 39.873C59.4628 40.3271 59.1765 40.6661 58.8473 40.8899C58.5181 41.1136 58.1593 41.2255 57.7709 41.2255C57.468 41.2255 57.1586 41.1564 56.8426 41.0182L57.0993 40.2284C57.3429 40.314 57.5602 40.3568 57.7511 40.3568C58.1856 40.3568 58.5444 40.1264 58.8275 39.6657L58.9855 39.4189L56.2007 34.1766H57.2573L59.499 38.56L61.8 34.1766H62.7777Z" fill="white"/>
<path d="M68.108 37.5036C68.5754 37.6155 68.9276 37.8163 69.1646 38.1059C69.4082 38.3889 69.53 38.7541 69.53 39.2017C69.53 39.8006 69.3095 40.2646 68.8684 40.5937C68.4338 40.9228 67.7985 41.0873 66.9624 41.0873H63.8023V34.1766H66.7748C67.5319 34.1766 68.1211 34.3313 68.5425 34.6406C68.9704 34.9434 69.1844 35.3811 69.1844 35.9537C69.1844 36.3288 69.0889 36.648 68.898 36.9113C68.7137 37.1746 68.4503 37.372 68.108 37.5036ZM64.78 37.2173H66.7057C67.1863 37.2173 67.5517 37.1219 67.8018 36.931C68.0586 36.7402 68.187 36.4605 68.187 36.0919C68.187 35.7233 68.0586 35.4436 67.8018 35.2527C67.5451 35.0553 67.1797 34.9566 66.7057 34.9566H64.78V37.2173ZM66.9427 40.3074C68.0026 40.3074 68.5326 39.9125 68.5326 39.1227C68.5326 38.7278 68.3976 38.4382 68.1277 38.2539C67.8644 38.0631 67.4694 37.9676 66.9427 37.9676H64.78V40.3074H66.9427Z" fill="white"/>
<path d="M76.1966 40.2284V41.0873H71.1799V34.1766H76.0583V35.0355H72.1674V37.1581H75.6337V37.9973H72.1674V40.2284H76.1966Z" fill="white"/>
<path d="M83.3961 34.1766V41.0873H82.4283V35.0355H79.3669L79.2978 37.0594C79.2649 38.0137 79.1859 38.787 79.0608 39.3794C78.9423 39.9717 78.7514 40.4193 78.488 40.722C78.2247 41.0182 77.8692 41.1663 77.4215 41.1663C77.2174 41.1663 77.01 41.14 76.7993 41.0873L76.8685 40.2087C76.9738 40.235 77.0792 40.2482 77.1845 40.2482C77.4676 40.2482 77.6947 40.1363 77.8659 39.9125C78.0371 39.6821 78.1654 39.3399 78.251 38.8858C78.3366 38.4316 78.3926 37.8327 78.4189 37.089L78.5275 34.1766H83.3961Z" fill="white"/>
<path d="M85.5493 34.1766H86.527V39.5077L90.6153 34.1766H91.5239V41.0873H90.5561V35.7661L86.4578 41.0873H85.5493V34.1766Z" fill="white"/>
<path d="M98.6017 34.1766V41.0873H97.624V38.3527C96.8932 38.6357 96.2184 38.7772 95.5995 38.7772C94.7568 38.7772 94.1018 38.5731 93.6343 38.1651C93.1735 37.757 92.9431 37.1746 92.9431 36.4177V34.1766H93.9109V36.3091C93.9109 36.8224 94.0656 37.2173 94.375 37.4938C94.691 37.7702 95.1354 37.9084 95.7082 37.9084C96.3468 37.9084 96.9854 37.7636 97.624 37.474V34.1766H98.6017Z" fill="white"/>
<path d="M105.774 40.2284V41.0873H100.758V34.1766H105.636V35.0355H101.745V37.1581H105.211V37.9973H101.745V40.2284H105.774Z" fill="white"/>
<path d="M113.27 34.1766V41.0873H112.283V38.0071H108.313V41.0873H107.325V34.1766H108.313V37.1482H112.283V34.1766H113.27Z" fill="white"/>
<path d="M115.426 34.1766H116.404V39.5077L120.492 34.1766H121.401V41.0873H120.433V35.7661L116.335 41.0873H115.426V34.1766Z" fill="white"/>
<path d="M128.573 40.2284V41.0873H123.556V34.1766H128.434V35.0355H124.543V37.1581H128.01V37.9973H124.543V40.2284H128.573Z" fill="white"/>
<path d="M138.73 34.1766V41.0873H137.762V35.0355H133.753V41.0873H132.775V34.1766H138.73Z" fill="white"/>
<path d="M143.582 34.1766C144.477 34.1766 145.182 34.3905 145.695 34.8183C146.209 35.2461 146.466 35.8352 146.466 36.5855C146.466 37.3358 146.209 37.9249 145.695 38.3527C145.182 38.7805 144.477 38.9944 143.582 38.9944H141.873V41.0873H140.886V34.1766H143.582ZM143.552 38.1355C144.178 38.1355 144.655 38.0038 144.984 37.7406C145.313 37.4707 145.478 37.0857 145.478 36.5855C145.478 36.0853 145.313 35.7036 144.984 35.4403C144.655 35.1705 144.178 35.0355 143.552 35.0355H141.873V38.1355H143.552Z" fill="white"/>
<path d="M151.046 41.1663C150.349 41.1663 149.72 41.0149 149.16 40.7122C148.601 40.4028 148.159 39.9783 147.837 39.4386C147.521 38.8989 147.363 38.2967 147.363 37.632C147.363 36.9672 147.521 36.365 147.837 35.8253C148.159 35.2856 148.601 34.8644 149.16 34.5617C149.72 34.2523 150.349 34.0977 151.046 34.0977C151.738 34.0977 152.363 34.2523 152.923 34.5617C153.482 34.8644 153.92 35.2856 154.236 35.8253C154.552 36.3584 154.71 36.9607 154.71 37.632C154.71 38.3033 154.552 38.9088 154.236 39.4485C153.92 39.9816 153.482 40.4028 152.923 40.7122C152.363 41.0149 151.738 41.1663 151.046 41.1663ZM151.046 40.2877C151.553 40.2877 152.008 40.1725 152.409 39.9421C152.817 39.7118 153.137 39.3958 153.367 38.9944C153.604 38.5863 153.723 38.1322 153.723 37.632C153.723 37.1318 153.604 36.6809 153.367 36.2795C153.137 35.8714 152.817 35.5522 152.409 35.3218C152.008 35.0915 151.553 34.9763 151.046 34.9763C150.539 34.9763 150.079 35.0915 149.664 35.3218C149.256 35.5522 148.933 35.8714 148.696 36.2795C148.466 36.6809 148.35 37.1318 148.35 37.632C148.35 38.1322 148.466 38.5863 148.696 38.9944C148.933 39.3958 149.256 39.7118 149.664 39.9421C150.079 40.1725 150.539 40.2877 151.046 40.2877Z" fill="white"/>
<path d="M162.701 40.2284V42.5978H161.782V41.0873H156.094L156.084 42.5978H155.166L155.176 40.2284H155.511C155.946 40.2021 156.252 39.8599 156.43 39.2017C156.607 38.5369 156.716 37.6024 156.756 36.3979L156.825 34.1766H161.683V40.2284H162.701ZM157.625 36.4868C157.592 37.4609 157.513 38.2671 157.388 38.9055C157.269 39.5439 157.075 39.9849 156.805 40.2284H160.706V35.0355H157.674L157.625 36.4868Z" fill="white"/>
<path d="M168.573 39.3596H164.899L164.139 41.0873H163.122L166.252 34.1766H167.23L170.37 41.0873H169.333L168.573 39.3596ZM168.227 38.5699L166.736 35.1836L165.245 38.5699H168.227Z" fill="white"/>
<path d="M177.042 38.0466H175.729V41.0873H174.761V38.0466H173.438L171.502 41.0873H170.347L172.628 37.4938L170.514 34.1766H171.571L173.418 37.1778H174.761V34.1766H175.729V37.1778H177.052L178.908 34.1766H179.965L177.852 37.5135L180.133 41.0873H178.978L177.042 38.0466Z" fill="white"/>
</g>
<path d="M70.3193 29.8811H67.3149V25.8986H59.648V29.8699H56.5545L56.3765 23.1842H57.4558C57.9306 22.7467 58.3052 22.0422 58.5797 21.0706C58.8542 20.0991 59.0471 18.8272 59.1584 17.255L59.6146 9.70165H68.9284V23.1842H70.6086L70.3193 29.8811ZM60.9722 23.1842H65.668V12.4271H62.7303L62.4632 16.8879C62.2778 19.5652 61.7808 21.6639 60.9722 23.1842Z" fill="white"/>
<path d="M83.4387 19.2574C83.4387 21.4303 82.9231 23.1175 81.892 24.3189C80.8682 25.5203 79.4439 26.1211 77.619 26.1211C75.8015 26.1211 74.3735 25.5278 73.3349 24.3412C72.2963 23.1472 71.7696 21.4785 71.7548 19.3353V16.5653C71.7548 14.3405 72.2703 12.6051 73.3015 11.3592C74.3327 10.1058 75.7644 9.47916 77.5967 9.47916C79.3994 9.47916 80.82 10.0947 81.8586 11.3258C82.8972 12.5495 83.4239 14.27 83.4387 16.4874V19.2574ZM80.1561 16.5431C80.1561 15.0821 79.9484 13.9956 79.5329 13.2837C79.1175 12.5717 78.4721 12.2157 77.5967 12.2157C76.7288 12.2157 76.0871 12.5606 75.6717 13.2503C75.2562 13.9326 75.0411 14.9745 75.0263 16.3762V19.2574C75.0263 20.6739 75.2377 21.7196 75.6605 22.3944C76.0834 23.0619 76.7362 23.3956 77.619 23.3956C78.4721 23.3956 79.1064 23.0693 79.5218 22.4167C79.9372 21.7566 80.1487 20.7369 80.1561 19.3575V16.5431Z" fill="white"/>
<path d="M90.0596 9.70165L93.1197 21.4155L96.1687 9.70165H100.442V25.8986H97.159V21.5156L97.4595 14.7632L94.2213 25.8986H91.9958L88.7577 14.7632L89.0581 21.5156V25.8986H85.7866V9.70165H90.0596Z" fill="white"/>
<path d="M119.314 20.5033C119.232 22.3499 118.713 23.7479 117.756 24.6971C116.799 25.6464 115.449 26.1211 113.706 26.1211C111.873 26.1211 110.468 25.5203 109.488 24.3189C108.517 23.1101 108.031 21.3895 108.031 19.1573V16.4318C108.031 14.207 108.535 12.4938 109.544 11.2924C110.553 10.0836 111.955 9.47916 113.75 9.47916C115.516 9.47916 116.855 9.97234 117.767 10.9587C118.687 11.945 119.21 13.3615 119.336 15.2082H116.054C116.024 14.0661 115.846 13.28 115.52 12.8498C115.201 12.4123 114.611 12.1935 113.75 12.1935C112.875 12.1935 112.255 12.5013 111.892 13.1168C111.528 13.7249 111.336 14.7298 111.313 16.1315V19.1906C111.313 20.7999 111.491 21.905 111.847 22.5057C112.211 23.1064 112.83 23.4067 113.706 23.4067C114.566 23.4067 115.16 23.1991 115.486 22.7838C115.813 22.3611 115.998 21.6009 116.042 20.5033H119.314Z" fill="white"/>
<path d="M129.062 22.5835H124.6L123.732 25.8986H120.271L125.334 9.70165H128.327L133.424 25.8986H129.93L129.062 22.5835ZM125.312 19.8581H128.338L126.825 14.0846L125.312 19.8581Z" fill="white"/>
<path d="M142.882 9.70165H146.154V25.8986H142.882V15.1748L138.108 25.8986H134.826V9.70165H138.108V20.4366L142.882 9.70165ZM144.373 5.42993C144.373 6.41628 144.017 7.21352 143.305 7.82165C142.6 8.42977 141.669 8.73384 140.512 8.73384C139.347 8.73384 138.409 8.42977 137.697 7.82165C136.992 7.21352 136.64 6.41628 136.64 5.42993H138.943C138.943 5.88973 139.08 6.24942 139.355 6.50898C139.637 6.76113 140.022 6.88721 140.512 6.88721C140.994 6.88721 141.373 6.76113 141.647 6.50898C141.922 6.24942 142.059 5.88973 142.059 5.42993H144.373Z" fill="white"/>
<path d="M159.262 12.4271H155.256V25.8986H151.973V12.4271H148.034V9.70165H159.262V12.4271Z" fill="white"/>
<path d="M172.237 19.2574C172.237 21.4303 171.721 23.1175 170.69 24.3189C169.666 25.5203 168.242 26.1211 166.417 26.1211C164.6 26.1211 163.171 25.5278 162.133 24.3412C161.094 23.1472 160.568 21.4785 160.553 19.3353V16.5653C160.553 14.3405 161.068 12.6051 162.1 11.3592C163.131 10.1058 164.562 9.47916 166.395 9.47916C168.197 9.47916 169.618 10.0947 170.657 11.3258C171.695 12.5495 172.222 14.27 172.237 16.4874V19.2574ZM168.954 16.5431C168.954 15.0821 168.746 13.9956 168.331 13.2837C167.916 12.5717 167.27 12.2157 166.395 12.2157C165.527 12.2157 164.885 12.5606 164.47 13.2503C164.054 13.9326 163.839 14.9745 163.824 16.3762V19.2574C163.824 20.6739 164.036 21.7196 164.459 22.3944C164.881 23.0619 165.534 23.3956 166.417 23.3956C167.27 23.3956 167.904 23.0693 168.32 22.4167C168.735 21.7566 168.947 20.7369 168.954 19.3575V16.5431Z" fill="white"/>
<path d="M174.585 25.8986V9.70165H179.592C181.283 9.70165 182.567 10.0799 183.442 10.8363C184.325 11.5854 184.766 12.6867 184.766 14.1402C184.766 14.9634 184.585 15.6717 184.221 16.265C183.858 16.8583 183.361 17.2921 182.73 17.5665C183.457 17.7742 184.017 18.1932 184.41 18.8235C184.803 19.4465 185 20.2178 185 21.1374C185 22.7096 184.566 23.8962 183.698 24.6971C182.838 25.4981 181.588 25.8986 179.948 25.8986H174.585ZM177.856 18.8569V23.1842H179.948C180.534 23.1842 180.979 23.0026 181.283 22.6392C181.588 22.2758 181.74 21.7603 181.74 21.0929C181.74 19.6393 181.213 18.894 180.16 18.8569H177.856ZM177.856 16.4763H179.559C180.842 16.4763 181.484 15.8126 181.484 14.4851C181.484 13.7509 181.335 13.2243 181.039 12.9054C180.742 12.5865 180.26 12.4271 179.592 12.4271H177.856V16.4763Z" fill="white"/>
<path fill-rule="evenodd" clip-rule="evenodd" d="M23.7264 0.59247C22.3322 -0.19749 20.6255 -0.19749 19.2314 0.59247L10.7394 5.40428L2.32507 10.3504C0.943673 11.1625 0.0903286 12.6401 0.0775905 14.242L0 24L0.0775905 33.758C0.0903286 35.3599 0.943672 36.8375 2.32507 37.6496L10.7394 42.5957L19.2314 47.4075C20.6255 48.1975 22.3322 48.1975 23.7264 47.4075L32.2183 42.5957L40.6327 37.6496C42.0141 36.8375 42.8674 35.3599 42.8802 33.758L42.9578 24L42.8802 14.242C42.8674 12.6401 42.0141 11.1625 40.6327 10.3504L32.2183 5.40428L23.7264 0.59247ZM24.1376 25.1119L37.6476 17.3142C38.7376 16.6851 39.111 15.2918 38.4817 14.2021C37.8524 13.1124 36.4586 12.7391 35.3686 13.3682L22.0041 21.0819L8.63947 13.3682C7.54948 12.7391 6.15571 13.1124 5.5264 14.2021C4.89709 15.2917 5.27055 16.6851 6.36054 17.3142L19.5798 24.9441V39.568C19.5798 40.8263 20.6001 41.8463 21.8587 41.8463C23.1173 41.8463 24.1376 40.8263 24.1376 39.568V25.1119Z" fill="white"/>
</svg>
