<svg width="71" height="70" fill="none" xmlns="http://www.w3.org/2000/svg"><g opacity=".3" fill="#333"><path d="M60.931 33.408A27.925 27.925 0 1137.097 9.57l-1.783 1.783a6.982 6.982 0 00-2.048 4.938A20.944 20.944 0 1054.21 37.234a6.981 6.981 0 004.934-2.048l1.787-1.778z"/><path d="M51.492 5.687c.256.383.392.834.391 1.295v11.635H63.52a2.327 2.327 0 011.647 3.975l-9.308 9.309a2.327 2.327 0 01-1.648.68h-13l-3.448 3.448a4.656 4.656 0 01-8.735 3.126 4.654 4.654 0 01-.415-1.92 4.664 4.664 0 015.86-4.501l3.448-3.445V16.29a2.328 2.328 0 01.68-1.647l9.308-9.309a2.327 2.327 0 013.584.353z"/><path d="M33.266 20.944a16.29 16.29 0 1016.29 16.29h-6.418l-.582.582a9.31 9.31 0 11-9.872-9.872l.582-.581v-6.419z"/></g></svg>