<svg width="71" height="70" fill="none" xmlns="http://www.w3.org/2000/svg"><g opacity=".3" clip-path="url(#clip0_1_147)" fill="#333"><g clip-path="url(#clip1_1_147)"><path fill-rule="evenodd" clip-rule="evenodd" d="M63.364 14.954a3.89 3.89 0 00-.797 0H56L35.5 35 15 14.954H8.122a3.892 3.892 0 00-1.03.155l26.684 26.573a2 2 0 002.824-.002l26.764-26.726z"/><path d="M66.242 17.657L37.93 45.85a3.889 3.889 0 01-5.484 0L4.39 17.871a3.89 3.89 0 00-.136.972v38.889a3.889 3.889 0 003.889 3.889h54.444a3.889 3.889 0 003.89-3.89V18.844a3.888 3.888 0 00-.234-1.186zM10.806 57.732H8.103v-2.78l14.136-14.02 2.742 2.741-14.175 14.059zm51.741 0h-2.722L45.65 43.673l2.742-2.741 14.136 14.02.02 2.78z"/></g><path d="M48.953 4.215a8.37 8.37 0 00-11.84 0L35.5 5.83l-1.613-1.614a8.372 8.372 0 00-11.839 11.84l1.613 1.613 11.84 11.839 11.839-11.84 1.612-1.612a8.37 8.37 0 000-11.84z"/></g><defs><clipPath id="clip0_1_147"><path fill="#fff" transform="translate(.5)" d="M0 0h70v70H0z"/></clipPath><clipPath id="clip1_1_147"><path fill="#fff" transform="translate(.5 3.287)" d="M0 0h70v70H0z"/></clipPath></defs></svg>