<svg width="70" height="70" fill="none" xmlns="http://www.w3.org/2000/svg"><g opacity=".3"><rect x="4.2" y="43.966" width="11.454" height="20.307" rx="2" fill="#333"/><rect x="18.2" y="36.351" width="11.454" height="27.922" rx="2" fill="#333"/><rect x="32.2" y="31.273" width="11.454" height="32.999" rx="2" fill="#333"/><rect x="46.2" y="26.197" width="11.454" height="38.076" rx="2" fill="#333"/><path d="M4.068 35.85a1 1 0 10.265 1.983l-.265-1.982zm43.405-18.046l-11.51.928 6.559 9.503 4.95-10.431zM4.333 37.833c6.47-.866 21.445-4.834 36.263-14.07l-1.058-1.697C24.977 31.142 10.275 35.02 4.068 35.85l.265 1.982z" fill="#333"/><ellipse cx="57.655" cy="15.329" rx="8.909" ry="8.329" fill="#333"/><path d="M60.996 16.711c0 .596-.215 1.117-.646 1.563-.424.44-1.03.73-1.822.872v1.18h-1.493V19.2a7.138 7.138 0 01-1.524-.244c-.48-.135-.88-.301-1.197-.5l.805-1.829a5.28 5.28 0 001.186.5c.437.12.858.18 1.26.18.346 0 .593-.031.741-.095.148-.07.223-.174.223-.308 0-.156-.1-.273-.297-.351-.19-.078-.508-.163-.953-.255a11.496 11.496 0 01-1.43-.383 2.506 2.506 0 01-.995-.68c-.282-.32-.424-.748-.424-1.287 0-.624.223-1.16.668-1.606.451-.446 1.097-.73 1.937-.85v-1.16h1.494v1.138c.847.078 1.563.284 2.15.617l-.753 1.818c-.727-.368-1.415-.553-2.065-.553-.642 0-.963.156-.963.468 0 .149.095.262.286.34.19.071.504.15.942.234a9.26 9.26 0 011.43.372 2.4 2.4 0 011.006.67c.29.312.434.738.434 1.276z" fill="#fff"/></g></svg>