<svg width="71" height="70" fill="none" xmlns="http://www.w3.org/2000/svg"><g opacity=".3"><circle cx="35.5" cy="35" r="20.106" fill="#333"/><circle cx="35.5" cy="35" r="26.833" stroke="#333" stroke-width="7"/><path d="M38.844 21.831c-.327.102-.63.433-.913.997a3.9 3.9 0 00-.377 1.122c-.186.896-.315 1.38-.474 1.764-.194.473-.343.701-.673 1.037-.343.348-.77.838-1.38 1.575-1.081 1.306-1.796 2.067-2.244 2.383-.248.176-.27.186-.515.226-.354.06-.592.222-.754.518l-.074.131v9.677l.071.126c.157.286.5.488.898.533.484.054 1.236.258 2.526.684.396.132.773.254.838.27.066.02.34.105.615.187 1.147.354 2.61.63 3.692.7a40 40 0 002.788 0c1.076-.075 1.864-.376 2.461-.946.623-.59.916-1.338.916-2.33v-.408l.15-.167c.332-.37.526-.734.662-1.239.141-.52.154-1.02.037-1.462l-.042-.16.11-.154c.167-.236.36-.64.432-.908.154-.577.133-1.166-.063-1.813l-.053-.172.116-.14a3.17 3.17 0 00.61-1.196c.062-.218.068-.273.068-.77 0-.513-.003-.546-.071-.76a2.96 2.96 0 00-2.034-1.925c-.367-.094-.581-.102-2.78-.102-1.179 0-2.142-.005-2.142-.01 0-.067.202-.492.495-1.042.38-.714.51-1.035.641-1.592.108-.45.128-.684.113-1.34-.024-1.085-.152-1.575-.579-2.195-.372-.544-.958-.885-1.817-1.062-.33-.067-1.089-.09-1.254-.037zM24.89 30.96a1.06 1.06 0 00-.615.507l-.06.117v9.701l.089.157a.94.94 0 00.471.413l.173.077h2.37c2.256 0 2.374-.002 2.5-.047.18-.065.382-.212.479-.35.175-.252.162.146.157-5.15l-.008-4.8-.06-.118a1.054 1.054 0 00-.472-.447l-.175-.082-2.37-.005c-1.91-.005-2.39.002-2.479.027zm2.534 7.365c.268.09.535.373.6.637.045.172.021.455-.047.602a1.147 1.147 0 01-.469.455c-.138.065-.175.072-.413.072-.233 0-.278-.007-.409-.067-.178-.084-.392-.28-.466-.428-.115-.236-.118-.574-.002-.796.076-.151.243-.325.387-.405.23-.13.56-.157.82-.07z" fill="#fff"/><path d="M27.424 38.325c.268.09.535.373.6.637.045.172.021.455-.047.602a1.147 1.147 0 01-.469.455c-.138.065-.175.072-.413.072-.233 0-.278-.007-.409-.067-.178-.084-.392-.28-.466-.428-.115-.236-.118-.574-.002-.796.076-.151.243-.325.387-.405.23-.13.56-.157.82-.07z" fill="#fff"/></g></svg>