<svg width="71" height="70" fill="none" xmlns="http://www.w3.org/2000/svg"><g opacity=".3" fill="#333"><path d="M18.127 63.03a1 1 0 01-1-1v-1.282c0-7.564 6.19-13.696 13.827-13.696h9.218C47.81 47.052 54 53.184 54 60.748v1.283a1 1 0 01-1 1H18.127zm17.436-22.826c-5.09 0-9.218-4.088-9.218-9.13 0-5.043 4.127-9.13 9.218-9.13s9.219 4.087 9.219 9.13c0 5.042-4.128 9.13-9.219 9.13z" stroke="#333" stroke-width="2" stroke-linecap="round"/><path d="M59.397 22.011a.5.5 0 01.883 0l1.697 3.187a.5.5 0 00.357.258l3.577.613a.5.5 0 01.272.843l-2.524 2.572a.5.5 0 00-.138.422l.516 3.555a.5.5 0 01-.713.522l-3.267-1.591a.5.5 0 00-.438 0l-3.266 1.59a.5.5 0 01-.714-.52l.517-3.556a.5.5 0 00-.138-.422l-2.524-2.573a.5.5 0 01.272-.843l3.577-.613a.5.5 0 00.357-.257l1.697-3.187zm-49.164 0a.5.5 0 01.883 0l1.697 3.187a.5.5 0 00.357.258l3.577.613a.5.5 0 01.272.843l-2.524 2.572a.5.5 0 00-.138.422l.516 3.555a.5.5 0 01-.713.522l-3.267-1.591a.5.5 0 00-.438 0l-3.266 1.59a.5.5 0 01-.714-.52l.517-3.556a.5.5 0 00-.138-.422L4.33 26.91a.5.5 0 01.272-.843l3.577-.613a.5.5 0 00.357-.257l1.697-3.187zm9.218-13.696a.5.5 0 01.883 0l1.697 3.187a.5.5 0 00.357.258l3.577.613a.5.5 0 01.272.843l-2.524 2.572a.5.5 0 00-.138.422l.517 3.555a.5.5 0 01-.714.522l-3.266-1.591a.5.5 0 00-.438 0l-3.267 1.59a.5.5 0 01-.713-.52l.516-3.556a.5.5 0 00-.138-.422l-2.524-2.572a.5.5 0 01.272-.843l3.577-.613a.5.5 0 00.357-.258l1.697-3.187zm15.364-6.087a.5.5 0 01.883 0l1.697 3.187a.5.5 0 00.357.258l3.577.613a.5.5 0 01.272.843L39.077 9.7a.5.5 0 00-.138.422l.516 3.556a.5.5 0 01-.713.52l-3.267-1.59a.5.5 0 00-.438 0l-3.266 1.59a.5.5 0 01-.713-.52l.516-3.556a.5.5 0 00-.138-.422l-2.524-2.57a.5.5 0 01.272-.843l3.577-.613a.5.5 0 00.357-.258l1.697-3.187zm15.364 6.087a.5.5 0 01.883 0l1.697 3.187a.5.5 0 00.357.258l3.577.613a.5.5 0 01.272.843l-2.524 2.572a.5.5 0 00-.138.422l.516 3.555a.5.5 0 01-.714.522l-3.266-1.591a.5.5 0 00-.438 0l-3.266 1.59a.5.5 0 01-.714-.52l.517-3.556a.5.5 0 00-.138-.422l-2.525-2.572a.5.5 0 01.273-.843l3.577-.613a.5.5 0 00.356-.258l1.698-3.187z"/></g></svg>