<svg width="71" height="70" fill="none" xmlns="http://www.w3.org/2000/svg"><g opacity=".3" clip-path="url(#clip0_1_108)"><path fill-rule="evenodd" clip-rule="evenodd" d="M30.192 64.167h10.617a2.916 2.916 0 002.846-2.293l1.205-5.48a23.272 23.272 0 004.474-2.584l-8.526-8.526v-20.55l8.526-8.526a23.893 23.893 0 00-4.477-2.587l-1.202-5.492a2.917 2.917 0 00-2.846-2.295H30.192a2.917 2.917 0 00-2.847 2.295l-1.19 5.49a24.53 24.53 0 00-2.272 1.125c-.764.443-1.505.933-2.217 1.458l-5.358-1.706a2.916 2.916 0 00-3.412 1.321l-5.308 9.197a2.934 2.934 0 00.563 3.616l4.156 3.783a23.5 23.5 0 000 5.168L8.15 41.373a2.934 2.934 0 00-.563 3.614l5.32 9.19A2.916 2.916 0 0016.32 55.5l5.358-1.707a23.33 23.33 0 004.477 2.587l1.187 5.495a2.916 2.916 0 002.85 2.293z" fill="#333"/><path d="M35.488 23.334a11.667 11.667 0 100 23.333 11.667 11.667 0 000-23.334z" fill="#fff"/><circle cx="36.796" cy="35" r="3.889" fill="#333"/><circle cx="60.13" cy="35" r="3.889" fill="#333"/><circle cx="48.463" cy="27.222" r="3.889" fill="#333"/><circle cx="60.13" cy="19.445" r="3.889" fill="#333"/><path d="M37.444 29.815l1.645-2.193a1 1 0 01.8-.4h3.389m5.832-5.185l1.645-2.193a1 1 0 01.8-.4h3.39" stroke="#333" stroke-width="2" stroke-linecap="round"/><circle r="3.889" transform="matrix(1 0 0 -1 48.463 42.778)" fill="#333"/><circle r="3.889" transform="matrix(1 0 0 -1 60.13 50.555)" fill="#333"/><path d="M37.444 40.185l1.645 2.193a1 1 0 00.8.4h3.389m5.832 5.185l1.645 2.192a1 1 0 00.8.4h3.39M41.981 35h12.963" stroke="#333" stroke-width="2" stroke-linecap="round"/></g><defs><clipPath id="clip0_1_108"><path fill="#fff" transform="translate(.5)" d="M0 0h70v70H0z"/></clipPath></defs></svg>