<svg width="185" height="48" fill="none" xmlns="http://www.w3.org/2000/svg"><g opacity=".3" fill="#fff"><path d="M62.778 34.177l-3.072 5.696c-.243.454-.53.793-.859 1.017a1.873 1.873 0 01-1.076.335c-.303 0-.612-.069-.928-.207l.256-.79c.244.086.461.129.652.129.435 0 .793-.23 1.077-.691l.157-.247-2.784-5.242h1.056L59.5 38.56l2.301-4.383h.978zm5.33 3.327c.467.111.82.312 1.057.602.243.283.365.648.365 1.096 0 .599-.22 1.063-.662 1.392-.434.329-1.07.493-1.906.493h-3.16v-6.91h2.973c.757 0 1.346.154 1.767.464.428.302.642.74.642 1.313 0 .375-.095.694-.286.957a1.66 1.66 0 01-.79.593zm-3.328-.287h1.926c.48 0 .846-.095 1.096-.286.257-.19.385-.47.385-.84 0-.368-.128-.647-.385-.838-.257-.198-.622-.296-1.096-.296H64.78v2.26zm2.163 3.09c1.06 0 1.59-.395 1.59-1.184 0-.395-.135-.685-.405-.87-.264-.19-.659-.285-1.185-.285H64.78v2.34h2.163zm9.254-.079v.86H71.18v-6.911h4.878v.858h-3.89v2.123h3.466v.84h-3.467v2.23h4.03zm7.199-6.051v6.91h-.968v-6.052h-3.061l-.07 2.024c-.032.955-.111 1.728-.236 2.32-.119.593-.31 1.04-.573 1.343-.263.296-.619.444-1.067.444-.204 0-.411-.026-.622-.079l.07-.878c.105.026.21.04.316.04.283 0 .51-.113.68-.337.172-.23.3-.572.386-1.026.086-.454.142-1.053.168-1.797l.109-2.912h4.868zm2.154 0h.977v5.33l4.088-5.33h.909v6.91h-.968v-5.32l-4.098 5.32h-.909v-6.91zm13.052 0v6.91h-.978v-2.734c-.73.283-1.406.424-2.024.424-.843 0-1.498-.204-1.966-.612-.46-.408-.69-.99-.69-1.747v-2.241h.967v2.132c0 .513.155.908.464 1.185.316.276.76.414 1.333.414.639 0 1.277-.144 1.916-.434v-3.297h.978zm7.172 6.051v.86h-5.016v-6.911h4.878v.858h-3.891v2.123h3.466v.84h-3.466v2.23h4.029zm7.496-6.051v6.91h-.987v-3.08h-3.97v3.08h-.988v-6.91h.988v2.971h3.97v-2.971h.987zm2.156 0h.978v5.33l4.088-5.33h.909v6.91h-.968v-5.32l-4.098 5.32h-.909v-6.91zm13.147 6.051v.86h-5.017v-6.911h4.878v.858h-3.891v2.123h3.467v.84h-3.467v2.23h4.03zm10.157-6.051v6.91h-.968v-6.052h-4.009v6.052h-.978v-6.91h5.955zm4.852 0c.895 0 1.6.214 2.113.641.514.428.771 1.017.771 1.768 0 .75-.257 1.339-.771 1.767-.513.428-1.218.641-2.113.641h-1.709v2.093h-.987v-6.91h2.696zm-.03 3.959c.626 0 1.103-.132 1.432-.395.329-.27.494-.655.494-1.155s-.165-.882-.494-1.146c-.329-.27-.806-.404-1.432-.404h-1.679v3.1h1.679zm7.494 3.03c-.697 0-1.326-.151-1.886-.454a3.465 3.465 0 01-1.323-1.273 3.509 3.509 0 01-.474-1.807c0-.665.158-1.267.474-1.807a3.39 3.39 0 011.323-1.263c.56-.31 1.189-.464 1.886-.464.692 0 1.317.154 1.877.464.559.302.997.724 1.313 1.263.316.533.474 1.136.474 1.807s-.158 1.277-.474 1.817a3.42 3.42 0 01-1.313 1.263 3.881 3.881 0 01-1.877.454zm0-.878c.507 0 .962-.115 1.363-.346.408-.23.728-.546.958-.948.237-.408.356-.862.356-1.362 0-.5-.119-.951-.356-1.352a2.479 2.479 0 00-.958-.958 2.689 2.689 0 00-1.363-.346c-.507 0-.967.116-1.382.346-.408.23-.731.55-.968.957-.23.402-.346.853-.346 1.353s.116.954.346 1.362c.237.402.56.718.968.948.415.23.875.346 1.382.346zm11.655-.06v2.37h-.919v-1.51h-5.688l-.01 1.51h-.918l.01-2.37h.335c.435-.026.741-.368.919-1.026.177-.665.286-1.6.326-2.804l.069-2.221h4.858v6.051h1.018zm-5.076-3.741c-.033.974-.112 1.78-.237 2.419-.119.638-.313 1.079-.583 1.322h3.901v-5.193h-3.032l-.049 1.452zm10.948 2.873h-3.674l-.76 1.727h-1.017l3.13-6.91h.978l3.14 6.91h-1.037l-.76-1.727zm-.346-.79l-1.491-3.386-1.491 3.386h2.982z"/><path d="M177.042 38.047h-1.313v3.04h-.968v-3.04h-1.323l-1.936 3.04h-1.155l2.281-3.593-2.114-3.317h1.057l1.847 3h1.343v-3h.968v3h1.323l1.856-3h1.057l-2.113 3.337 2.281 3.573h-1.155l-1.936-3.04z"/></g><path d="M70.32 29.881h-3.005V25.9h-7.667v3.97h-3.094l-.178-6.685h1.08c.475-.437.85-1.142 1.124-2.113.274-.972.467-2.244.578-3.816l.457-7.553h9.313v13.482h1.68l-.289 6.697zm-9.348-6.697h4.696V12.427H62.73l-.267 4.46c-.185 2.678-.682 4.777-1.49 6.297zm22.467-3.927c0 2.173-.516 3.86-1.547 5.062-1.024 1.201-2.448 1.802-4.273 1.802-1.817 0-3.245-.593-4.284-1.78-1.039-1.194-1.565-2.863-1.58-5.006v-2.77c0-2.225.515-3.96 1.547-5.206 1.03-1.253 2.462-1.88 4.295-1.88 1.802 0 3.223.616 4.262 1.847 1.038 1.223 1.565 2.944 1.58 5.161v2.77zm-3.283-2.714c0-1.46-.208-2.547-.623-3.26-.415-.711-1.06-1.067-1.936-1.067-.868 0-1.51.345-1.925 1.034-.416.683-.63 1.725-.646 3.126v2.881c0 1.417.212 2.463.635 3.137.422.668 1.075 1.002 1.958 1.002.853 0 1.487-.327 1.903-.98.415-.66.627-1.68.634-3.058v-2.815zm9.904-6.841l3.06 11.714 3.049-11.714h4.273v16.197h-3.283v-4.383l.3-6.753L94.222 25.9h-2.225l-3.238-11.136.3 6.753V25.9h-3.271V9.702h4.273zm29.254 10.801c-.082 1.847-.601 3.245-1.558 4.194-.957.95-2.307 1.424-4.05 1.424-1.833 0-3.238-.6-4.218-1.802-.971-1.209-1.457-2.93-1.457-5.162v-2.725c0-2.225.504-3.938 1.513-5.14 1.009-1.208 2.411-1.813 4.206-1.813 1.766 0 3.105.493 4.017 1.48.92.986 1.443 2.402 1.569 4.25h-3.282c-.03-1.143-.208-1.929-.534-2.36-.319-.437-.909-.655-1.77-.655-.875 0-1.495.307-1.858.923-.364.608-.556 1.613-.579 3.014v3.06c0 1.609.178 2.714.534 3.315.364.6.983.9 1.859.9.86 0 1.454-.207 1.78-.622.327-.423.512-1.183.556-2.28h3.272zm9.748 2.081H124.6l-.868 3.315h-3.461l5.063-16.197h2.993l5.097 16.197h-3.494l-.868-3.316zm-3.75-2.726h3.026l-1.513-5.773-1.513 5.773zm17.57-10.156h3.272v16.197h-3.272V15.175l-4.774 10.724h-3.282V9.702h3.282v10.735l4.774-10.735zm1.491-4.272c0 .986-.356 1.784-1.068 2.392-.705.608-1.636.912-2.793.912-1.165 0-2.103-.304-2.815-.912-.705-.608-1.057-1.406-1.057-2.392h2.303c0 .46.137.82.412 1.079.282.252.667.378 1.157.378.482 0 .861-.126 1.135-.378.275-.26.412-.62.412-1.08h2.314zm14.889 6.997h-4.006V25.9h-3.283V12.427h-3.939V9.702h11.228v2.725zm12.975 6.83c0 2.173-.516 3.86-1.547 5.062-1.024 1.201-2.448 1.802-4.273 1.802-1.817 0-3.246-.593-4.284-1.78-1.039-1.194-1.565-2.863-1.58-5.006v-2.77c0-2.225.515-3.96 1.547-5.206 1.031-1.253 2.462-1.88 4.295-1.88 1.802 0 3.223.616 4.262 1.847 1.038 1.223 1.565 2.944 1.58 5.161v2.77zm-3.283-2.714c0-1.46-.208-2.547-.623-3.26-.415-.711-1.061-1.067-1.936-1.067-.868 0-1.51.345-1.925 1.034-.416.683-.631 1.725-.646 3.126v2.881c0 1.417.212 2.463.635 3.137.422.668 1.075 1.002 1.958 1.002.853 0 1.487-.327 1.903-.98.415-.66.627-1.68.634-3.058v-2.815zm5.631 9.356V9.702h5.007c1.691 0 2.975.378 3.85 1.134.883.75 1.324 1.85 1.324 3.304 0 .823-.181 1.532-.545 2.125a3.213 3.213 0 01-1.491 1.302 2.826 2.826 0 011.68 1.256c.393.623.59 1.395.59 2.314 0 1.573-.434 2.76-1.302 3.56-.86.801-2.11 1.202-3.75 1.202h-5.363zm3.271-7.042v4.327h2.092c.586 0 1.031-.181 1.335-.545.305-.363.457-.879.457-1.546 0-1.454-.527-2.199-1.58-2.236h-2.304zm0-2.38h1.703c1.283 0 1.925-.664 1.925-1.992 0-.734-.149-1.26-.445-1.58-.297-.319-.779-.478-1.447-.478h-1.736v4.05z" fill="#fff"/><path fill-rule="evenodd" clip-rule="evenodd" d="M23.726.592a4.56 4.56 0 00-4.495 0L10.74 5.404 2.325 10.35a4.556 4.556 0 00-2.247 3.892L0 24l.078 9.758a4.556 4.556 0 002.247 3.892l8.414 4.946 8.492 4.812c1.394.79 3.101.79 4.495 0l8.492-4.812 8.415-4.946a4.557 4.557 0 002.247-3.892L42.958 24l-.078-9.758a4.557 4.557 0 00-2.247-3.892l-8.415-4.946L23.726.592zm.412 24.52l13.51-7.798a2.278 2.278 0 10-2.28-3.946l-13.364 7.714L8.64 13.368a2.28 2.28 0 00-2.278 3.946l13.219 7.63v14.624a2.279 2.279 0 004.558 0V25.112z" fill="#fff"/></svg>