<svg width="185" height="48" fill="none" xmlns="http://www.w3.org/2000/svg"><g opacity=".3" fill="#333"><path d="M62.778 34.176l-3.072 5.697c-.243.454-.53.793-.859 1.016a1.874 1.874 0 01-1.076.336c-.303 0-.612-.07-.928-.207l.256-.79c.244.085.461.128.652.128.435 0 .793-.23 1.077-.69l.157-.248-2.784-5.242h1.056L59.5 38.56l2.301-4.383h.978zm5.33 3.327c.467.112.82.313 1.057.602.243.283.365.649.365 1.096 0 .6-.22 1.063-.662 1.392-.434.33-1.07.494-1.906.494h-3.16v-6.91h2.973c.757 0 1.346.154 1.767.463.428.303.642.74.642 1.313 0 .375-.095.694-.286.958a1.66 1.66 0 01-.79.592zm-3.328-.286h1.926c.48 0 .846-.096 1.096-.286.257-.191.385-.471.385-.84 0-.368-.128-.648-.385-.839-.257-.197-.622-.296-1.096-.296H64.78v2.26zm2.163 3.09c1.06 0 1.59-.395 1.59-1.185 0-.395-.135-.684-.405-.868-.264-.191-.659-.287-1.185-.287H64.78v2.34h2.163zm9.254-.079v.859H71.18v-6.91h4.878v.858h-3.89v2.123h3.466v.839h-3.467v2.23h4.03zm7.199-6.052v6.91h-.968v-6.051h-3.061l-.07 2.024c-.032.954-.111 1.728-.236 2.32-.119.592-.31 1.04-.573 1.343-.263.296-.619.444-1.067.444-.204 0-.411-.026-.622-.08l.07-.878c.105.026.21.04.316.04.283 0 .51-.112.68-.336.172-.23.3-.573.386-1.027.086-.454.142-1.053.168-1.796l.109-2.913h4.868zm2.154 0h.977v5.331l4.088-5.33h.909v6.91h-.968v-5.321l-4.098 5.32h-.909v-6.91zm13.052 0v6.91h-.978v-2.734c-.73.283-1.406.425-2.024.425-.843 0-1.498-.204-1.966-.612-.46-.408-.69-.99-.69-1.748v-2.24h.967v2.132c0 .513.155.908.464 1.184.316.277.76.415 1.333.415.639 0 1.277-.145 1.916-.434v-3.298h.978zm7.172 6.052v.859h-5.016v-6.91h4.878v.858h-3.891v2.123h3.466v.839h-3.466v2.23h4.029zm7.496-6.052v6.91h-.987v-3.08h-3.97v3.08h-.988v-6.91h.988v2.972h3.97v-2.972h.987zm2.156 0h.978v5.331l4.088-5.33h.909v6.91h-.968v-5.321l-4.098 5.32h-.909v-6.91zm13.147 6.052v.859h-5.017v-6.91h4.878v.858h-3.891v2.123h3.467v.839h-3.467v2.23h4.03zm10.157-6.052v6.91h-.968v-6.051h-4.009v6.052h-.978v-6.91h5.955zm4.852 0c.895 0 1.6.214 2.113.642.514.428.771 1.017.771 1.767s-.257 1.34-.771 1.767c-.513.428-1.218.642-2.113.642h-1.709v2.093h-.987v-6.91h2.696zm-.03 3.959c.626 0 1.103-.132 1.432-.395.329-.27.494-.655.494-1.155s-.165-.882-.494-1.145c-.329-.27-.806-.405-1.432-.405h-1.679v3.1h1.679zm7.494 3.031a3.91 3.91 0 01-1.886-.454 3.465 3.465 0 01-1.323-1.274 3.509 3.509 0 01-.474-1.806c0-.665.158-1.267.474-1.807.322-.54.764-.961 1.323-1.264.56-.31 1.189-.464 1.886-.464.692 0 1.317.155 1.877.464.559.303.997.724 1.313 1.264.316.533.474 1.135.474 1.806 0 .672-.158 1.277-.474 1.817a3.42 3.42 0 01-1.313 1.264 3.881 3.881 0 01-1.877.454zm0-.879c.507 0 .962-.115 1.363-.345a2.5 2.5 0 00.958-.948c.237-.408.356-.862.356-1.362 0-.5-.119-.952-.356-1.353a2.479 2.479 0 00-.958-.958 2.689 2.689 0 00-1.363-.345 2.8 2.8 0 00-1.382.345c-.408.23-.731.55-.968.958a2.67 2.67 0 00-.346 1.352c0 .5.116.955.346 1.363.237.401.56.717.968.948a2.8 2.8 0 001.382.345zm11.655-.059v2.37h-.919v-1.511h-5.688l-.01 1.51h-.918l.01-2.37h.335c.435-.025.741-.368.919-1.026.177-.665.286-1.6.326-2.804l.069-2.22h4.858v6.05h1.018zm-5.076-3.742c-.033.974-.112 1.78-.237 2.419-.119.638-.313 1.08-.583 1.323h3.901v-5.193h-3.032l-.049 1.451zm10.948 2.874h-3.674l-.76 1.727h-1.017l3.13-6.91h.978l3.14 6.91h-1.037l-.76-1.728zm-.346-.79l-1.491-3.387-1.491 3.386h2.982z"/><path d="M177.042 38.046h-1.313v3.04h-.968v-3.04h-1.323l-1.936 3.04h-1.155l2.281-3.593-2.114-3.317h1.057l1.847 3.001h1.343v-3h.968v3h1.323l1.856-3h1.057l-2.113 3.336 2.281 3.574h-1.155l-1.936-3.04z"/></g><path d="M70.32 29.88h-3.005v-3.982h-7.667v3.972h-3.094l-.178-6.686h1.08c.475-.438.85-1.142 1.124-2.114.274-.971.467-2.243.578-3.815l.457-7.554h9.313v13.483h1.68l-.289 6.697zm-9.348-6.696h4.696V12.427H62.73l-.267 4.46c-.185 2.678-.682 4.777-1.49 6.297zm22.467-3.927c0 2.173-.516 3.86-1.547 5.062-1.024 1.201-2.448 1.802-4.273 1.802-1.817 0-3.245-.593-4.284-1.78-1.039-1.194-1.565-2.863-1.58-5.006v-2.77c0-2.225.515-3.96 1.547-5.206 1.03-1.253 2.462-1.88 4.295-1.88 1.802 0 3.223.616 4.262 1.847 1.038 1.223 1.565 2.944 1.58 5.161v2.77zm-3.283-2.714c0-1.461-.208-2.548-.623-3.26-.415-.711-1.06-1.067-1.936-1.067-.868 0-1.51.344-1.925 1.034-.416.682-.63 1.724-.646 3.126v2.881c0 1.417.212 2.462.635 3.137.422.668 1.075 1.001 1.958 1.001.853 0 1.487-.326 1.903-.979.415-.66.627-1.68.634-3.059v-2.814zm9.904-6.842l3.06 11.714 3.049-11.714h4.273v16.197h-3.283v-4.383l.3-6.752-3.238 11.135h-2.225l-3.238-11.135.3 6.752v4.383h-3.271V9.701h4.273zm29.254 10.802c-.082 1.847-.601 3.245-1.558 4.194-.957.95-2.307 1.424-4.05 1.424-1.833 0-3.238-.6-4.218-1.802-.971-1.21-1.457-2.93-1.457-5.162v-2.725c0-2.225.504-3.938 1.513-5.14 1.009-1.209 2.411-1.813 4.206-1.813 1.766 0 3.105.493 4.017 1.48.92.986 1.443 2.402 1.569 4.249h-3.282c-.03-1.142-.208-1.928-.534-2.358-.319-.438-.909-.657-1.77-.657-.875 0-1.495.308-1.858.924-.364.608-.556 1.613-.579 3.014v3.06c0 1.609.178 2.714.534 3.314.364.601.983.902 1.859.902.86 0 1.454-.208 1.78-.623.327-.423.512-1.183.556-2.28h3.272zm9.748 2.08H124.6l-.868 3.315h-3.461l5.063-16.197h2.993l5.097 16.197h-3.494l-.868-3.315zm-3.75-2.725h3.026l-1.513-5.774-1.513 5.774zm17.57-10.157h3.272v16.197h-3.272V15.175l-4.774 10.723h-3.282V9.701h3.282v10.735l4.774-10.735zm1.491-4.271c0 .986-.356 1.783-1.068 2.391-.705.609-1.636.913-2.793.913-1.165 0-2.103-.304-2.815-.913-.705-.608-1.057-1.405-1.057-2.391h2.303c0 .46.137.82.412 1.079.282.252.667.378 1.157.378.482 0 .861-.126 1.135-.378.275-.26.412-.62.412-1.08h2.314zm14.889 6.997h-4.006v13.471h-3.283V12.427h-3.939V9.7h11.228v2.726zm12.975 6.83c0 2.173-.516 3.86-1.547 5.062-1.024 1.201-2.448 1.802-4.273 1.802-1.817 0-3.246-.593-4.284-1.78-1.039-1.194-1.565-2.863-1.58-5.006v-2.77c0-2.225.515-3.96 1.547-5.206 1.031-1.253 2.462-1.88 4.295-1.88 1.802 0 3.223.616 4.262 1.847 1.038 1.223 1.565 2.944 1.58 5.161v2.77zm-3.283-2.714c0-1.461-.208-2.548-.623-3.26-.415-.711-1.061-1.067-1.936-1.067-.868 0-1.51.344-1.925 1.034-.416.682-.631 1.724-.646 3.126v2.881c0 1.417.212 2.462.635 3.137.422.668 1.075 1.001 1.958 1.001.853 0 1.487-.326 1.903-.979.415-.66.627-1.68.634-3.059v-2.814zm5.631 9.355V9.701h5.007c1.691 0 2.975.379 3.85 1.135.883.75 1.324 1.85 1.324 3.304 0 .823-.181 1.531-.545 2.125a3.213 3.213 0 01-1.491 1.301 2.825 2.825 0 011.68 1.257c.393.623.59 1.395.59 2.314 0 1.572-.434 2.759-1.302 3.56-.86.8-2.11 1.201-3.75 1.201h-5.363zm3.271-7.041v4.327h2.092c.586 0 1.031-.182 1.335-.545.305-.363.457-.879.457-1.546 0-1.454-.527-2.2-1.58-2.236h-2.304zm0-2.38h1.703c1.283 0 1.925-.665 1.925-1.992 0-.734-.149-1.26-.445-1.58-.297-.319-.779-.478-1.447-.478h-1.736v4.05z" fill="#212121"/><path fill-rule="evenodd" clip-rule="evenodd" d="M23.726.592a4.56 4.56 0 00-4.495 0L10.74 5.404 2.325 10.35a4.556 4.556 0 00-2.247 3.892L0 24l.078 9.758a4.556 4.556 0 002.247 3.892l8.414 4.946 8.492 4.812c1.394.79 3.101.79 4.495 0l8.492-4.812 8.415-4.946a4.557 4.557 0 002.247-3.892L42.958 24l-.078-9.758a4.557 4.557 0 00-2.247-3.892l-8.415-4.946L23.726.592zm.412 24.52l13.51-7.798a2.278 2.278 0 10-2.28-3.946l-13.364 7.714L8.64 13.368a2.28 2.28 0 00-2.278 3.946l13.219 7.63v14.624a2.279 2.279 0 004.558 0V25.112z" fill="#FF5900"/></svg>