<svg width="40" height="40" fill="none" xmlns="http://www.w3.org/2000/svg"><g clip-path="url(#clip0_1_725)"><path d="M26.139 0h-12.28C2.656 0 0 2.656 0 13.861V26.14c0 11.205 2.656 13.861 13.86 13.861h12.28C37.344 40.001 40 37.345 40 26.14V13.861C40 2.656 37.318 0 26.14 0zm6.152 28.535h-2.904c-1.1 0-1.439-.872-3.417-2.878-1.719-1.666-2.48-1.887-2.904-1.887-.599 0-.769.169-.769.99v2.624c0 .703-.221 1.126-2.084 1.126-3.08 0-6.497-1.863-8.893-5.333-3.614-5.084-4.603-8.893-4.603-9.68 0-.425.169-.82.983-.82h2.91c.736 0 1.016.338 1.302 1.126 1.439 4.153 3.835 7.792 4.824 7.792.365 0 .534-.169.534-1.1v-4.29c-.111-1.979-1.153-2.149-1.153-2.851 0-.339.28-.678.729-.678h4.576c.619 0 .846.339.846 1.068v5.787c0 .625.28.847.45.847.364 0 .677-.222 1.353-.9 2.09-2.343 3.587-5.957 3.587-5.957.195-.424.534-.82 1.27-.82h2.91c.873 0 1.068.449.873 1.074-.365 1.692-3.926 6.719-3.926 6.719-.306.507-.424.729 0 1.295.312.423 1.328 1.302 2.005 2.09 1.243 1.412 2.2 2.597 2.455 3.417.286.814-.136 1.238-.958 1.238l.004.001z" fill="#fff"/></g><defs><clipPath id="clip0_1_725"><path fill="#fff" d="M0 0h40v40H0z"/></clipPath></defs></svg>